# xmcd CD database file
#
# Track frame offsets:
#	151
#	27388
#	47037
#	60066
#	83565
#	111560
#	125631
#	146933
#
# Disc length: 2242 seconds
#
# Revision: 0
# Processed by: cddbd v1.5.1PL0 Copyright (c) Steve Scherf et al.
# Submitted via: CDex 1.51
#
DISCID=6d08c008
DTITLE=Various Artist - 2003 Iowa Jazz Championships
DYEAR=2003
DGENRE=Jazz
TTITLE0=Harlan - Point of Impact
TTITLE1=Harlan - I've Just Seen Her
TTITLE2=Harlan - Impresions
TTITLE3=Harlan - La Fiesta
TTITLE4=Independence - Haitian Fight Song
TTITLE5=Independence - Sultry Sunset
TTITLE6=Independence - Tres Palabras
TTITLE7=Independence - Chronometry
EXTD=YEAR: 2003
EXTT0=
EXTT1=
EXTT2=
EXTT3=
EXTT4=
EXTT5=
EXTT6=
EXTT7=
PLAYORDER=
